<?xml version="1.0" encoding="utf-8"?>
<!-- Generator: Adobe Illustrator 25.2.2, SVG Export Plug-In . SVG Version: 6.00 Build 0)  -->
<svg version="1.1" id="Layer_1" xmlns="http://www.w3.org/2000/svg" xmlns:xlink="http://www.w3.org/1999/xlink" x="0px" y="0px"
	 viewBox="0 0 400 400" style="enable-background:new 0 0 400 400;" xml:space="preserve">
<style type="text/css">
	.st0{fill:#F2F2EB;}
	.st1{fill:#343646;}
</style>
<g>
	<rect x="0.5" y="0.5" class="st0" width="399" height="399"/>
	<path class="st0" d="M399,1v398H1V1H399 M400,0H0v400h400V0L400,0z"/>
</g>
<g>
	<polygon class="st1" points="199.76,262.22 126.47,300.38 140.75,219 81.81,161.09 163.63,149.52 200.48,75.57 236.77,149.81 
		318.49,162.01 259.1,219.46 272.75,300.95 	"/>
	<path class="st1" d="M200.48,76.7l35.72,73.1l0.23,0.47l0.52,0.08l80.47,12.01l-58.48,56.56l-0.38,0.37l0.09,0.52l13.44,80.24
		l-71.86-38.14l-0.46-0.25l-0.47,0.24l-72.16,37.58l14.07-80.13l0.09-0.52l-0.38-0.37l-58.04-57.01l80.56-11.39l0.52-0.07l0.23-0.47
		L200.48,76.7 M200.49,74.44l-37.19,74.63l-82.56,11.67l59.48,58.43L125.8,301.3l73.96-38.51l73.65,39.09l-13.78-82.24l59.94-57.97
		l-82.47-12.31L200.49,74.44L200.49,74.44z"/>
</g>
<g>
	<polygon class="st0" points="159.05,213.33 118.07,173.42 174.67,165.17 199.96,113.86 225.3,165.14 281.91,173.34 240.97,213.29 
		250.66,269.66 200.02,243.07 149.4,269.71 	"/>
	<path class="st0" d="M199.96,114.99l24.77,50.14l0.23,0.47l0.52,0.08l55.35,8.01l-40.03,39.06l-0.38,0.37l0.09,0.52l9.48,55.11
		l-49.51-26l-0.47-0.24l-0.47,0.24l-49.49,26.05l9.43-55.12l0.09-0.52l-0.38-0.37l-40.07-39.02l55.34-8.07l0.52-0.08l0.23-0.47
		L199.96,114.99 M199.96,112.73l-25.62,51.98l-57.34,8.36l41.52,40.43l-9.77,57.12l51.28-26.99l51.31,26.94l-9.82-57.11l41.48-40.47
		l-57.35-8.31L199.96,112.73L199.96,112.73z"/>
</g>
</svg>
