<?xml version="1.0" encoding="utf-8"?>
<!-- Generator: Adobe Illustrator 25.2.2, SVG Export Plug-In . SVG Version: 6.00 Build 0)  -->
<svg version="1.1" id="Layer_1" xmlns="http://www.w3.org/2000/svg" xmlns:xlink="http://www.w3.org/1999/xlink" x="0px" y="0px"
	 viewBox="0 0 400 400" style="enable-background:new 0 0 400 400;" xml:space="preserve">
<style type="text/css">
	.st0{fill:#F2F2EB;}
	.st1{fill:#343646;}
</style>
<g>
	<rect x="0.5" y="0.5" class="st0" width="399" height="399"/>
	<path d="M399,1v398H1V1H399 M400,0H0v400h400V0L400,0z"/>
</g>
<g>
	<polygon class="st0" points="133.79,222.09 66.9,157.91 158.53,143.86 198.9,60.41 240.58,143.21 332.42,155.82 266.55,221.05 
		282.94,312.29 200.55,269.8 118.84,313.58 	"/>
	<path class="st1" d="M198.91,61.54l41.11,81.66l0.24,0.47l0.52,0.07l90.58,12.44l-64.97,64.33l-0.37,0.37l0.09,0.52l16.16,89.99
		l-81.26-41.91l-0.47-0.24l-0.46,0.25l-80.59,43.18l14.75-90.23l0.08-0.52l-0.38-0.36l-65.97-63.3l90.37-13.86l0.52-0.08l0.23-0.47
		L198.91,61.54 M198.89,59.28l-40.7,84.12l-92.37,14.16l67.43,64.7l-15.07,92.23l82.37-44.14l83.06,42.84l-16.52-91.98l66.41-65.76
		l-92.58-12.71L198.89,59.28L198.89,59.28z"/>
</g>
</svg>
